<svg width="240" height="40" viewBox="0 0 240 40" fill="none" xmlns="http://www.w3.org/2000/svg">
<circle cx="20" cy="20" r="19" fill="#85BF55" stroke="#85BF55" stroke-width="2"/>
<path d="M9.99977 20L16.6586 27L29.9998 13" stroke="white" stroke-width="2.5" stroke-linecap="round" stroke-linejoin="round"/>
<path d="M66.4 27.3C65.3933 27.3 64.4867 27.1333 63.68 26.8C62.88 26.46 62.2167 25.98 61.69 25.36C61.17 24.74 60.83 24.0033 60.67 23.15L62.17 22.9C62.41 23.8333 62.9167 24.5667 63.69 25.1C64.4633 25.6267 65.3867 25.89 66.46 25.89C67.1667 25.89 67.8 25.78 68.36 25.56C68.92 25.3333 69.36 25.0133 69.68 24.6C70 24.1867 70.16 23.6967 70.16 23.13C70.16 22.7567 70.0933 22.44 69.96 22.18C69.8267 21.9133 69.65 21.6933 69.43 21.52C69.21 21.3467 68.97 21.2033 68.71 21.09C68.45 20.97 68.1967 20.8733 67.95 20.8L64.3 19.71C63.86 19.5833 63.4533 19.4233 63.08 19.23C62.7067 19.03 62.38 18.7933 62.1 18.52C61.8267 18.24 61.6133 17.9133 61.46 17.54C61.3067 17.1667 61.23 16.74 61.23 16.26C61.23 15.4467 61.4433 14.7433 61.87 14.15C62.2967 13.5567 62.88 13.1 63.62 12.78C64.36 12.46 65.2033 12.3033 66.15 12.31C67.11 12.31 67.9667 12.48 68.72 12.82C69.48 13.16 70.1067 13.6467 70.6 14.28C71.0933 14.9067 71.42 15.65 71.58 16.51L70.04 16.79C69.94 16.1633 69.71 15.62 69.35 15.16C68.99 14.7 68.53 14.3467 67.97 14.1C67.4167 13.8467 66.8067 13.7167 66.14 13.71C65.4933 13.71 64.9167 13.82 64.41 14.04C63.91 14.2533 63.5133 14.5467 63.22 14.92C62.9267 15.2933 62.78 15.72 62.78 16.2C62.78 16.6867 62.9133 17.0767 63.18 17.37C63.4533 17.6633 63.7867 17.8933 64.18 18.06C64.58 18.2267 64.9667 18.3633 65.34 18.47L68.16 19.3C68.4533 19.38 68.7967 19.4967 69.19 19.65C69.59 19.7967 69.9767 20.01 70.35 20.29C70.73 20.5633 71.0433 20.9233 71.29 21.37C71.5367 21.8167 71.66 22.3833 71.66 23.07C71.66 23.7367 71.5267 24.3333 71.26 24.86C71 25.3867 70.63 25.83 70.15 26.19C69.6767 26.55 69.12 26.8233 68.48 27.01C67.8467 27.2033 67.1533 27.3 66.4 27.3ZM79.6042 27C78.9976 27.1267 78.3976 27.1767 77.8042 27.15C77.2176 27.1233 76.6909 26.9967 76.2242 26.77C75.7642 26.5433 75.4142 26.19 75.1742 25.71C74.9809 25.31 74.8742 24.9067 74.8542 24.5C74.8409 24.0867 74.8342 23.6167 74.8342 23.09V13.2H76.2942V23.03C76.2942 23.4833 76.2976 23.8633 76.3042 24.17C76.3176 24.47 76.3876 24.7367 76.5142 24.97C76.7542 25.4167 77.1342 25.6833 77.6542 25.77C78.1809 25.8567 78.8309 25.8367 79.6042 25.71V27ZM72.5242 17.46V16.2H79.6042V17.46H72.5242ZM85.9114 27.3C84.8581 27.3 83.9447 27.0667 83.1714 26.6C82.4047 26.1333 81.8081 25.4767 81.3814 24.63C80.9547 23.7833 80.7414 22.79 80.7414 21.65C80.7414 20.47 80.9514 19.45 81.3714 18.59C81.7914 17.73 82.3814 17.0667 83.1414 16.6C83.9081 16.1333 84.8114 15.9 85.8514 15.9C86.9181 15.9 87.8281 16.1467 88.5814 16.64C89.3347 17.1267 89.9047 17.8267 90.2914 18.74C90.6781 19.6533 90.8547 20.7433 90.8214 22.01H89.3214V21.49C89.2947 20.09 88.9914 19.0333 88.4114 18.32C87.8381 17.6067 86.9981 17.25 85.8914 17.25C84.7314 17.25 83.8414 17.6267 83.2214 18.38C82.6081 19.1333 82.3014 20.2067 82.3014 21.6C82.3014 22.96 82.6081 24.0167 83.2214 24.77C83.8414 25.5167 84.7181 25.89 85.8514 25.89C86.6247 25.89 87.2981 25.7133 87.8714 25.36C88.4514 25 88.9081 24.4833 89.2414 23.81L90.6114 24.34C90.1847 25.28 89.5547 26.01 88.7214 26.53C87.8947 27.0433 86.9581 27.3 85.9114 27.3ZM81.7814 22.01V20.78H90.0314V22.01H81.7814ZM97.5977 27.3C96.6043 27.3 95.7643 27.05 95.0777 26.55C94.391 26.0433 93.871 25.36 93.5177 24.5C93.1643 23.6333 92.9877 22.6633 92.9877 21.59C92.9877 20.4967 93.1643 19.5233 93.5177 18.67C93.8777 17.81 94.4043 17.1333 95.0977 16.64C95.791 16.1467 96.6443 15.9 97.6577 15.9C98.6443 15.9 99.491 16.15 100.198 16.65C100.904 17.15 101.444 17.83 101.818 18.69C102.198 19.55 102.388 20.5167 102.388 21.59C102.388 22.67 102.198 23.64 101.818 24.5C101.438 25.36 100.891 26.0433 100.178 26.55C99.4643 27.05 98.6043 27.3 97.5977 27.3ZM92.7377 31.8V16.2H94.0577V24.33H94.2177V31.8H92.7377ZM97.4477 25.93C98.201 25.93 98.8277 25.74 99.3277 25.36C99.8277 24.98 100.201 24.4633 100.448 23.81C100.701 23.15 100.828 22.41 100.828 21.59C100.828 20.7767 100.704 20.0433 100.458 19.39C100.211 18.7367 99.8343 18.22 99.3277 17.84C98.8277 17.46 98.191 17.27 97.4177 17.27C96.6643 17.27 96.0377 17.4533 95.5377 17.82C95.0443 18.1867 94.6743 18.6967 94.4277 19.35C94.181 19.9967 94.0577 20.7433 94.0577 21.59C94.0577 22.4233 94.181 23.17 94.4277 23.83C94.6743 24.4833 95.0477 24.9967 95.5477 25.37C96.0477 25.7433 96.681 25.93 97.4477 25.93ZM111.098 27V14.24L108.388 15.87V14.22L111.098 12.6H112.588V27H111.098ZM121.184 25.4V23.69H122.894V25.4H121.184ZM121.194 19.51V17.8H122.904V19.51H121.194ZM136.195 27.3C134.762 27.3 133.552 26.9833 132.565 26.35C131.578 25.71 130.832 24.8267 130.325 23.7C129.818 22.5733 129.565 21.2733 129.565 19.8C129.565 18.3267 129.818 17.0267 130.325 15.9C130.832 14.7733 131.578 13.8933 132.565 13.26C133.552 12.62 134.762 12.3 136.195 12.3C137.868 12.3 139.235 12.73 140.295 13.59C141.355 14.4433 142.082 15.59 142.475 17.03L140.975 17.42C140.668 16.28 140.118 15.3767 139.325 14.71C138.532 14.0433 137.488 13.71 136.195 13.71C135.068 13.71 134.132 13.9667 133.385 14.48C132.638 14.9933 132.075 15.71 131.695 16.63C131.322 17.5433 131.128 18.6 131.115 19.8C131.108 21 131.292 22.0567 131.665 22.97C132.045 23.8833 132.612 24.6 133.365 25.12C134.125 25.6333 135.068 25.89 136.195 25.89C137.488 25.89 138.532 25.5567 139.325 24.89C140.118 24.2167 140.668 23.3133 140.975 22.18L142.475 22.57C142.082 24.01 141.355 25.16 140.295 26.02C139.235 26.8733 137.868 27.3 136.195 27.3ZM147.771 27.3C146.958 27.3 146.275 27.1533 145.721 26.86C145.175 26.5667 144.765 26.1767 144.491 25.69C144.218 25.2033 144.081 24.6733 144.081 24.1C144.081 23.5133 144.198 23.0133 144.431 22.6C144.671 22.18 144.995 21.8367 145.401 21.57C145.815 21.3033 146.291 21.1 146.831 20.96C147.378 20.8267 147.981 20.71 148.641 20.61C149.308 20.5033 149.958 20.4133 150.591 20.34C151.231 20.26 151.791 20.1833 152.271 20.11L151.751 20.43C151.771 19.3633 151.565 18.5733 151.131 18.06C150.698 17.5467 149.945 17.29 148.871 17.29C148.131 17.29 147.505 17.4567 146.991 17.79C146.485 18.1233 146.128 18.65 145.921 19.37L144.491 18.95C144.738 17.9833 145.235 17.2333 145.981 16.7C146.728 16.1667 147.698 15.9 148.891 15.9C149.878 15.9 150.715 16.0867 151.401 16.46C152.095 16.8267 152.585 17.36 152.871 18.06C153.005 18.3733 153.091 18.7233 153.131 19.11C153.171 19.4967 153.191 19.89 153.191 20.29V27H151.881V24.29L152.261 24.45C151.895 25.3767 151.325 26.0833 150.551 26.57C149.778 27.0567 148.851 27.3 147.771 27.3ZM147.941 26.03C148.628 26.03 149.228 25.9067 149.741 25.66C150.255 25.4133 150.668 25.0767 150.981 24.65C151.295 24.2167 151.498 23.73 151.591 23.19C151.671 22.8433 151.715 22.4633 151.721 22.05C151.728 21.63 151.731 21.3167 151.731 21.11L152.291 21.4C151.791 21.4667 151.248 21.5333 150.661 21.6C150.081 21.6667 149.508 21.7433 148.941 21.83C148.381 21.9167 147.875 22.02 147.421 22.14C147.115 22.2267 146.818 22.35 146.531 22.51C146.245 22.6633 146.008 22.87 145.821 23.13C145.641 23.39 145.551 23.7133 145.551 24.1C145.551 24.4133 145.628 24.7167 145.781 25.01C145.941 25.3033 146.195 25.5467 146.541 25.74C146.895 25.9333 147.361 26.03 147.941 26.03ZM155.795 27V16.2H157.115V18.8L156.855 18.46C156.975 18.14 157.131 17.8467 157.325 17.58C157.518 17.3067 157.728 17.0833 157.955 16.91C158.235 16.6633 158.561 16.4767 158.935 16.35C159.308 16.2167 159.685 16.14 160.065 16.12C160.445 16.0933 160.791 16.12 161.105 16.2V17.58C160.711 17.48 160.281 17.4567 159.815 17.51C159.348 17.5633 158.918 17.75 158.525 18.07C158.165 18.35 157.895 18.6867 157.715 19.08C157.535 19.4667 157.415 19.88 157.355 20.32C157.295 20.7533 157.265 21.1833 157.265 21.61V27H155.795ZM168.882 27C168.275 27.1267 167.675 27.1767 167.082 27.15C166.495 27.1233 165.968 26.9967 165.502 26.77C165.042 26.5433 164.692 26.19 164.452 25.71C164.258 25.31 164.152 24.9067 164.132 24.5C164.118 24.0867 164.112 23.6167 164.112 23.09V13.2H165.572V23.03C165.572 23.4833 165.575 23.8633 165.582 24.17C165.595 24.47 165.665 24.7367 165.792 24.97C166.032 25.4167 166.412 25.6833 166.932 25.77C167.458 25.8567 168.108 25.8367 168.882 25.71V27ZM161.802 17.46V16.2H168.882V17.46H161.802ZM175.013 27V12.6H180.573C180.713 12.6 180.87 12.6067 181.043 12.62C181.223 12.6267 181.403 12.6467 181.583 12.68C182.337 12.7933 182.973 13.0567 183.493 13.47C184.02 13.8767 184.417 14.39 184.683 15.01C184.957 15.63 185.093 16.3167 185.093 17.07C185.093 18.1567 184.807 19.1 184.233 19.9C183.66 20.7 182.84 21.2033 181.773 21.41L181.263 21.53H176.483V27H175.013ZM183.733 27L180.893 21.14L182.303 20.6L185.423 27H183.733ZM176.483 20.13H180.533C180.653 20.13 180.793 20.1233 180.953 20.11C181.113 20.0967 181.27 20.0733 181.423 20.04C181.917 19.9333 182.32 19.73 182.633 19.43C182.953 19.13 183.19 18.7733 183.343 18.36C183.503 17.9467 183.583 17.5167 183.583 17.07C183.583 16.6233 183.503 16.1933 183.343 15.78C183.19 15.36 182.953 15 182.633 14.7C182.32 14.4 181.917 14.1967 181.423 14.09C181.27 14.0567 181.113 14.0367 180.953 14.03C180.793 14.0167 180.653 14.01 180.533 14.01H176.483V20.13ZM192.2 27.3C191.147 27.3 190.234 27.0667 189.46 26.6C188.694 26.1333 188.097 25.4767 187.67 24.63C187.244 23.7833 187.03 22.79 187.03 21.65C187.03 20.47 187.24 19.45 187.66 18.59C188.08 17.73 188.67 17.0667 189.43 16.6C190.197 16.1333 191.1 15.9 192.14 15.9C193.207 15.9 194.117 16.1467 194.87 16.64C195.624 17.1267 196.194 17.8267 196.58 18.74C196.967 19.6533 197.144 20.7433 197.11 22.01H195.61V21.49C195.584 20.09 195.28 19.0333 194.7 18.32C194.127 17.6067 193.287 17.25 192.18 17.25C191.02 17.25 190.13 17.6267 189.51 18.38C188.897 19.1333 188.59 20.2067 188.59 21.6C188.59 22.96 188.897 24.0167 189.51 24.77C190.13 25.5167 191.007 25.89 192.14 25.89C192.914 25.89 193.587 25.7133 194.16 25.36C194.74 25 195.197 24.4833 195.53 23.81L196.9 24.34C196.474 25.28 195.844 26.01 195.01 26.53C194.184 27.0433 193.247 27.3 192.2 27.3ZM188.07 22.01V20.78H196.32V22.01H188.07ZM201.859 27L197.939 16.2H199.429L202.619 25.08L205.789 16.2H207.299L203.379 27H201.859ZM209.295 14.15V12.5H210.765V14.15H209.295ZM209.295 27V16.2H210.765V27H209.295ZM218.333 27.3C217.28 27.3 216.367 27.0667 215.593 26.6C214.827 26.1333 214.23 25.4767 213.803 24.63C213.377 23.7833 213.163 22.79 213.163 21.65C213.163 20.47 213.373 19.45 213.793 18.59C214.213 17.73 214.803 17.0667 215.563 16.6C216.33 16.1333 217.233 15.9 218.273 15.9C219.34 15.9 220.25 16.1467 221.003 16.64C221.757 17.1267 222.327 17.8267 222.713 18.74C223.1 19.6533 223.277 20.7433 223.243 22.01H221.743V21.49C221.717 20.09 221.413 19.0333 220.833 18.32C220.26 17.6067 219.42 17.25 218.313 17.25C217.153 17.25 216.263 17.6267 215.643 18.38C215.03 19.1333 214.723 20.2067 214.723 21.6C214.723 22.96 215.03 24.0167 215.643 24.77C216.263 25.5167 217.14 25.89 218.273 25.89C219.047 25.89 219.72 25.7133 220.293 25.36C220.873 25 221.33 24.4833 221.663 23.81L223.033 24.34C222.607 25.28 221.977 26.01 221.143 26.53C220.317 27.0433 219.38 27.3 218.333 27.3ZM214.203 22.01V20.78H222.453V22.01H214.203ZM227.372 27L224.072 16.19L225.542 16.2L228.102 24.59L230.672 16.2H232.012L234.582 24.59L237.162 16.2H238.622L235.322 27H234.042L231.342 18.4L228.652 27H227.372Z" fill="black"/>
</svg>
